<svg width="36" height="36" viewBox="0 0 36 36" fill="none" xmlns="http://www.w3.org/2000/svg">
<g clip-path="url(#clip0_35_6)">
<path d="M16.33 5.05C18.4961 5.04802 20.6141 5.68855 22.4162 6.89054C24.2182 8.09254 25.6233 9.80201 26.4536 11.8027C27.2839 13.8034 27.5022 16.0054 27.0808 18.1301C26.6594 20.2549 25.6173 22.2069 24.0863 23.7393C22.5553 25.2717 20.6042 26.3155 18.4799 26.7389C16.3555 27.1622 14.1533 26.9459 12.1519 26.1174C10.1505 25.2889 8.43971 23.8855 7.23607 22.0845C6.03242 20.2836 5.38996 18.1661 5.38996 16C5.40309 13.1017 6.5596 10.3256 8.60812 8.27522C10.6566 6.22482 13.4316 5.06578 16.33 5.05ZM16.33 3C13.7588 3 11.2454 3.76244 9.10755 5.1909C6.96971 6.61935 5.30347 8.64968 4.31953 11.0251C3.33559 13.4006 3.07815 16.0144 3.57975 18.5362C4.08136 21.0579 5.31949 23.3743 7.13757 25.1924C8.95566 27.0105 11.272 28.2486 13.7938 28.7502C16.3155 29.2518 18.9294 28.9944 21.3048 28.0104C23.6803 27.0265 25.7106 25.3603 27.1391 23.2224C28.5675 21.0846 29.33 18.5712 29.33 16C29.33 12.5522 27.9603 9.24558 25.5224 6.80761C23.0844 4.36964 19.7778 3 16.33 3Z" fill="white"/>
<path d="M35 33.29L27.63 25.87L26.21 27.28L33.58 34.7C33.6725 34.7932 33.7826 34.8673 33.9038 34.918C34.025 34.9688 34.155 34.9951 34.2864 34.9956C34.4178 34.996 34.548 34.9706 34.6696 34.9207C34.7912 34.8709 34.9017 34.7976 34.995 34.705C35.0882 34.6124 35.1623 34.5024 35.213 34.3812C35.2637 34.26 35.2901 34.1299 35.2905 33.9985C35.291 33.8671 35.2656 33.7369 35.2157 33.6154C35.1659 33.4938 35.0925 33.3832 35 33.29Z" fill="white"/>
</g>
<defs>
<clipPath id="clip0_35_6">
<rect width="36" height="36" fill="white"/>
</clipPath>
</defs>
</svg>
