<svg width="31" height="31" viewBox="0 0 31 31" fill="none" xmlns="http://www.w3.org/2000/svg">
<circle cx="15.5" cy="15.5" r="15.5" fill="#BCF7D8"/>
<path d="M8.5 15.5C8.5 13.6152 9.24463 11.9046 10.4556 10.6464C10.5624 10.7435 10.6542 10.8669 10.7234 11.0226C10.9019 11.4225 10.9019 11.8346 10.9019 12.1995C10.9019 12.4865 10.9019 12.7595 10.9937 12.9564C11.1197 13.2259 11.664 13.3414 12.1444 13.4411L12.1619 13.4455C12.3281 13.4805 12.4988 13.5155 12.6545 13.5592C13.0973 13.6817 13.4402 14.0799 13.7141 14.3992C13.8279 14.5314 13.9967 14.7265 14.0816 14.7755C14.1254 14.744 14.2662 14.5909 14.3354 14.3397C14.3896 14.1472 14.3739 13.9775 14.296 13.8848C13.806 13.3073 13.8331 12.196 13.9845 11.7856C14.2225 11.139 14.9663 11.1871 15.5105 11.2221H15.5157C15.717 11.2353 15.906 11.2484 16.0478 11.23C16.4599 11.1775 16.6559 10.691 16.7784 10.3865C16.8178 10.2894 16.8492 10.2106 16.8781 10.1712C17.11 9.85362 17.7741 9.39075 18.258 9.06437C19.1597 9.45209 19.97 10.0246 20.6368 10.7448C21.3036 11.4651 21.8119 12.3171 22.129 13.246C22.8682 13.4974 23.56 13.8709 24.1756 14.3511C23.613 10.0619 19.9433 6.75 15.5 6.75C10.6674 6.75 6.75 10.6674 6.75 15.5C6.75 19.9433 10.0619 23.613 14.3511 24.1756C13.871 23.56 13.4974 22.8682 13.246 22.129C11.8619 21.6578 10.66 20.7652 9.80883 19.5764C8.95768 18.3876 8.50001 16.9621 8.5 15.5ZM19.875 16.375C18.9467 16.375 18.0565 16.7437 17.4001 17.4001C16.7437 18.0565 16.375 18.9467 16.375 19.875C16.375 20.8033 16.7437 21.6935 17.4001 22.3499C18.0565 23.0063 18.9467 23.375 19.875 23.375C20.8033 23.375 21.6935 23.0063 22.3499 22.3499C23.0063 21.6935 23.375 20.8033 23.375 19.875C23.375 18.9467 23.0063 18.0565 22.3499 17.4001C21.6935 16.7437 20.8033 16.375 19.875 16.375ZM14.625 19.875C14.625 19.1856 14.7608 18.5029 15.0246 17.8659C15.2885 17.229 15.6752 16.6502 16.1627 16.1627C16.6502 15.6752 17.229 15.2885 17.8659 15.0246C18.5029 14.7608 19.1856 14.625 19.875 14.625C20.5644 14.625 21.2471 14.7608 21.8841 15.0246C22.521 15.2885 23.0998 15.6752 23.5873 16.1627C24.0748 16.6502 24.4615 17.229 24.7254 17.8659C24.9892 18.5029 25.125 19.1856 25.125 19.875C25.125 21.2674 24.5719 22.6027 23.5873 23.5873C22.6027 24.5719 21.2674 25.125 19.875 25.125C18.4826 25.125 17.1473 24.5719 16.1627 23.5873C15.1781 22.6027 14.625 21.2674 14.625 19.875ZM19 17.25V20.75H22.5V19H20.75V17.25H19Z" fill="#159F11"/>
</svg>
