<svg width="31" height="31" viewBox="0 0 31 31" fill="none" xmlns="http://www.w3.org/2000/svg">
<circle cx="15.5" cy="15.5" r="15.5" fill="#BCF7D8"/>
<path d="M15.5048 16.4612C16.0782 16.4612 16.6385 16.6326 17.1137 16.9534C17.5889 17.2743 17.9573 17.7299 18.1716 18.2617C18.3859 18.7935 18.4363 19.3773 18.3163 19.938C18.1963 20.4986 17.9114 21.0106 17.4982 21.4081L15.6678 23.1686H18.3798V25.0853H12.6298L12.6289 23.4331L16.169 20.0262C16.2832 19.9164 16.3684 19.78 16.417 19.6292C16.4656 19.4784 16.476 19.3179 16.4474 19.1621C16.4187 19.0062 16.3519 18.86 16.2529 18.7363C16.1538 18.6126 16.0257 18.5154 15.8799 18.4534C15.7341 18.3914 15.5752 18.3665 15.4174 18.381C15.2596 18.3954 15.1079 18.4488 14.9758 18.5362C14.8437 18.6237 14.7353 18.7426 14.6604 18.8822C14.5855 19.0218 14.5464 19.1778 14.5465 19.3362H12.6298C12.6298 18.5737 12.9327 17.8424 13.4719 17.3033C14.0111 16.7641 14.7423 16.4612 15.5048 16.4612ZM21.2548 16.4612V20.2945H23.1715V16.4612H25.0882V25.0862H23.1715V22.2112H19.3382V16.4612H21.2548ZM7.83818 15.5029C7.83699 16.6525 8.09485 17.7876 8.59257 18.8239C9.0903 19.8601 9.81512 20.7709 10.7132 21.4886V23.804C9.25582 22.963 8.04567 21.753 7.2045 20.2958C6.36333 18.8386 5.92083 17.1855 5.92151 15.5029H7.83818ZM15.5048 5.91954C20.4738 5.91954 24.5601 9.70113 25.0403 14.5445H23.1121C22.9175 12.9992 22.2568 11.5498 21.2181 10.3892C20.1793 9.22854 18.8118 8.4118 17.2974 8.04761C15.783 7.68343 14.1936 7.78908 12.7408 8.3505C11.2879 8.91192 10.0405 9.90249 9.16451 11.1904H11.6715V13.107H5.92151V7.35704H7.83818V9.75192C8.73006 8.56088 9.88741 7.59424 11.2183 6.9288C12.5492 6.26337 14.0169 5.91842 15.5048 5.91954Z" fill="#159F11"/>
</svg>
