<svg width="31" height="31" viewBox="0 0 31 31" fill="none" xmlns="http://www.w3.org/2000/svg">
<circle cx="15.5" cy="15.5" r="15.5" fill="#BCF7D8"/>
<path fill-rule="evenodd" clip-rule="evenodd" d="M10.5 9.20833C10.5 9.08678 10.5483 8.9702 10.6342 8.88424C10.7202 8.79829 10.8368 8.75 10.9583 8.75H21.0417C21.1632 8.75 21.2798 8.79829 21.3658 8.88424C21.4517 8.9702 21.5 9.08678 21.5 9.20833V9.66667H23.7917C23.9132 9.66667 24.0298 9.71496 24.1158 9.80091C24.2017 9.88686 24.25 10.0034 24.25 10.125V12.875C24.25 13.4828 24.0086 14.0657 23.5788 14.4955C23.149 14.9252 22.5661 15.1667 21.9583 15.1667H21.187C20.8594 16.0912 20.2908 16.9114 19.5401 17.5427C18.7894 18.1739 17.8837 18.5932 16.9167 18.7573V21.5833H19.6667C19.7882 21.5833 19.9048 21.6316 19.9908 21.7176C20.0767 21.8035 20.125 21.9201 20.125 22.0417V24.7917C20.125 24.9132 20.0767 25.0298 19.9908 25.1158C19.9048 25.2017 19.7882 25.25 19.6667 25.25H12.3333C12.2118 25.25 12.0952 25.2017 12.0092 25.1158C11.9233 25.0298 11.875 24.9132 11.875 24.7917V22.0417C11.875 21.9201 11.9233 21.8035 12.0092 21.7176C12.0952 21.6316 12.2118 21.5833 12.3333 21.5833H15.0833V18.7573C14.1163 18.5932 13.2106 18.1739 12.4599 17.5427C11.7092 16.9114 11.1406 16.0912 10.813 15.1667H10.0417C9.43388 15.1667 8.85098 14.9252 8.42121 14.4955C7.99144 14.0657 7.75 13.4828 7.75 12.875V10.125C7.75 10.0034 7.79829 9.88686 7.88424 9.80091C7.9702 9.71496 8.08678 9.66667 8.20833 9.66667H10.5V9.20833ZM21.5 13.3333V10.5833H23.3333V12.875C23.3333 13.2397 23.1885 13.5894 22.9306 13.8473C22.6727 14.1051 22.323 14.25 21.9583 14.25H21.5V13.3333ZM10.5 10.5833H8.66667V12.875C8.66667 13.2397 8.81153 13.5894 9.06939 13.8473C9.32726 14.1051 9.67699 14.25 10.0417 14.25H10.5V13.3333V10.5833Z" fill="#159F11"/>
</svg>
