<svg width="380" height="121" viewBox="0 0 380 121" fill="none" xmlns="http://www.w3.org/2000/svg">
<path d="M20.155 60.8225V97.6875C20.155 102.116 19.1817 105.377 17.235 107.47C15.337 109.611 12.8793 110.682 9.862 110.682C5.23867 110.682 2.27 108.492 0.956 104.112C3.97333 104.112 6.01733 103.479 7.088 102.214C8.15867 100.948 8.694 98.8068 8.694 95.7895V60.3845C8.694 57.8538 7.86667 56.1262 6.212 55.2015C8.06133 53.1575 10.2513 52.1355 12.782 52.1355C15.3613 52.1355 17.235 52.8412 18.403 54.2525C19.571 55.6638 20.155 57.8538 20.155 60.8225ZM14.899 33.8855C16.797 33.8855 18.3543 34.4695 19.571 35.6375C20.8363 36.7568 21.469 38.2655 21.469 40.1635C21.469 42.0128 20.666 43.7162 19.06 45.2735C17.5027 46.8308 15.702 47.6095 13.658 47.6095C11.614 47.6095 9.95933 47.0255 8.694 45.8575C7.47733 44.6408 6.869 43.0592 6.869 41.1125C6.869 39.1658 7.72067 37.4868 9.424 36.0755C11.176 34.6155 13.001 33.8855 14.899 33.8855ZM46.4869 57.6835C42.3016 57.6835 40.2089 61.3335 40.2089 68.6335C40.2089 69.7042 40.2576 70.8235 40.3549 71.9915C40.9389 81.5788 43.6156 86.3725 48.3849 86.3725C52.5702 86.3725 54.6629 82.6982 54.6629 75.3495C54.6629 74.3275 54.6142 73.2082 54.5169 71.9915C53.8356 62.4528 51.1589 57.6835 46.4869 57.6835ZM33.8579 57.3185C37.3132 53.8632 41.8392 52.1355 47.4359 52.1355C53.0326 52.1355 57.5586 53.8632 61.0139 57.3185C64.4692 60.7252 66.1969 65.6162 66.1969 71.9915C66.1969 78.3668 64.4449 83.2822 60.9409 86.7375C57.4856 90.1928 52.9596 91.9205 47.3629 91.9205C41.8149 91.9205 37.3132 90.1928 33.8579 86.7375C30.4026 83.2822 28.6749 78.3668 28.6749 71.9915C28.6749 65.6162 30.4026 60.7252 33.8579 57.3185ZM86.8816 79.8025C86.8816 83.7445 88.5606 85.7155 91.9186 85.7155C94.5952 85.7155 96.7609 84.4502 98.4156 81.9195C100.119 79.3888 100.971 76.1525 100.971 72.2105C100.971 68.2685 100.241 65.2512 98.7806 63.1585C97.3206 61.0172 95.5686 59.9465 93.5246 59.9465C92.2106 59.9465 90.9452 60.3845 89.7286 61.2605C88.5606 62.0878 87.6116 63.2315 86.8816 64.6915V79.8025ZM86.8816 42.5725V56.9535C89.4609 53.7415 92.8919 52.1355 97.1746 52.1355C101.506 52.1355 105.132 53.7902 108.052 57.0995C111.02 60.4088 112.505 64.8862 112.505 70.5315C112.505 77.1988 110.534 82.4305 106.592 86.2265C102.65 90.0225 97.5396 91.9205 91.2616 91.9205C86.0542 91.9205 82.1122 91.0445 79.4356 89.2925C76.7589 87.4918 75.4206 84.3285 75.4206 79.8025V42.1345C75.4206 39.7012 74.5932 37.9735 72.9386 36.9515C74.7879 34.9075 77.0266 33.8855 79.6546 33.8855C84.4726 33.8855 86.8816 36.7812 86.8816 42.5725ZM122.316 55.7125V46.5875C122.316 42.6455 123.508 39.5552 125.893 37.3165C128.326 35.0292 131.514 33.8855 135.456 33.8855C138.327 33.8855 140.614 34.5668 142.318 35.9295C144.07 37.2922 144.946 38.8982 144.946 40.7475C144.946 42.5968 144.191 43.6675 142.683 43.9595C141.174 42.3048 139.544 41.4775 137.792 41.4775C135.115 41.4775 133.777 43.2782 133.777 46.8795V55.7125H142.683C143.023 56.1018 143.194 56.6128 143.194 57.2455C143.194 58.6568 142.512 59.9222 141.15 61.0415C139.836 62.1608 137.792 62.7205 135.018 62.7205H133.777V97.6875C133.777 102.116 132.803 105.377 130.857 107.47C128.959 109.611 126.477 110.682 123.411 110.682C118.739 110.682 115.794 108.492 114.578 104.112C117.595 104.112 119.639 103.479 120.71 102.214C121.78 100.948 122.316 98.8068 122.316 95.7895V62.6475C118.082 62.3555 115.965 61.0658 115.965 58.7785C115.965 57.3672 116.5 56.2965 117.571 55.5665C119.615 55.6638 121.196 55.7125 122.316 55.7125Z" fill="white"/>
<path d="M241.851 66.0497V85.3767C241.851 88.1487 242.672 89.971 244.315 90.8437C242.467 93.051 240.131 94.1547 237.308 94.1547C232.277 94.1547 229.762 91.1003 229.762 84.9917V67.8207C229.762 65.9727 229.3 64.5353 228.376 63.5087C227.503 62.4307 226.246 61.8917 224.603 61.8917C222.96 61.8917 221.369 62.6617 219.829 64.2017C218.289 65.6903 217.185 67.9233 216.518 70.9007V85.3767C216.518 88.1487 217.365 89.971 219.059 90.8437C217.108 93.051 214.747 94.1547 211.975 94.1547C206.944 94.1547 204.429 91.1003 204.429 84.9917V60.8907C204.429 58.2213 203.556 56.4247 201.811 55.5007C203.762 53.2933 206.046 52.1897 208.664 52.1897C211.282 52.1897 213.207 52.857 214.439 54.1917C215.671 55.475 216.364 57.477 216.518 60.1977C217.904 57.5797 219.803 55.6033 222.216 54.2687C224.68 52.8827 227.503 52.1897 230.686 52.1897C233.92 52.1897 236.589 53.3703 238.694 55.7317C240.799 58.093 241.851 61.5323 241.851 66.0497ZM276.019 60.8137C274.839 59.479 273.093 58.8117 270.783 58.8117C268.473 58.8117 266.446 60.095 264.7 62.6617C263.006 65.177 262.159 68.6677 262.159 73.1337C262.159 82.0657 264.906 86.5317 270.398 86.5317C272.811 86.5317 274.685 85.5307 276.019 83.5287V60.8137ZM288.108 42.1027V85.3767C288.108 88.1487 288.955 89.971 290.649 90.8437C288.699 93.051 286.337 94.1547 283.565 94.1547C280.126 94.1547 277.867 92.7687 276.789 89.9967C275.66 91.28 274.197 92.3067 272.4 93.0767C270.655 93.7953 268.935 94.1547 267.241 94.1547C262.159 94.1547 257.95 92.3837 254.613 88.8417C251.328 85.2997 249.685 80.4487 249.685 74.2887C249.685 68.0773 251.559 62.8413 255.306 58.5807C259.054 54.32 264.11 52.1897 270.475 52.1897C272.272 52.1897 274.12 52.395 276.019 52.8057V41.6407C276.019 39.074 275.147 37.2517 273.401 36.1737C275.352 34.0177 277.713 32.9397 280.485 32.9397C285.567 32.9397 288.108 35.994 288.108 42.1027ZM317.644 67.8207C318.568 67.718 319.261 67.4357 319.723 66.9737C320.185 66.4603 320.416 65.5107 320.416 64.1247C320.416 62.7387 320.006 61.481 319.184 60.3517C318.414 59.171 317.336 58.5807 315.95 58.5807C314.564 58.5807 313.255 59.4533 312.023 61.1987C310.791 62.944 309.97 65.485 309.559 68.8217L317.644 67.8207ZM318.953 85.7617C323.214 85.7617 326.782 84.1447 329.656 80.9107C330.837 81.424 331.427 82.502 331.427 84.1447C331.427 86.6087 329.964 88.893 327.038 90.9977C324.112 93.1023 320.673 94.1547 316.72 94.1547C310.612 94.1547 305.838 92.4863 302.398 89.1497C299.01 85.813 297.316 81.039 297.316 74.8277C297.316 68.565 299.19 63.2263 302.937 58.8117C306.685 54.397 311.433 52.1897 317.182 52.1897C321.597 52.1897 325.242 53.627 328.116 56.5017C330.991 59.325 332.428 62.559 332.428 66.2037C332.428 69.027 331.761 71.0547 330.426 72.2867C329.092 73.5187 326.807 74.186 323.573 74.2887L309.328 74.6737C309.688 82.0657 312.896 85.7617 318.953 85.7617ZM340.758 84.9917V60.8907C340.758 58.2213 339.886 56.4247 338.14 55.5007C340.091 53.2933 342.452 52.1897 345.224 52.1897C349.793 52.1897 352.308 54.6537 352.77 59.5817C354.824 54.6537 358.237 52.1897 363.011 52.1897C365.424 52.1897 367.4 52.9083 368.94 54.3457C370.532 55.783 371.327 57.708 371.327 60.1207C371.327 62.5333 370.711 64.4583 369.479 65.8957C368.299 67.2817 366.476 67.9747 364.012 67.9747C363.704 67.9747 363.037 67.9233 362.01 67.8207C362.216 66.8967 362.318 66.3063 362.318 66.0497C362.318 64.7663 361.933 63.7653 361.163 63.0467C360.445 62.2767 359.546 61.8917 358.468 61.8917C355.696 61.8917 353.823 63.9963 352.847 68.2057V85.3767C352.847 88.1487 353.694 89.971 355.388 90.8437C353.438 93.051 351.076 94.1547 348.304 94.1547C343.274 94.1547 340.758 91.1003 340.758 84.9917Z" fill="white"/>
<g clip-path="url(#clip0_5_16)">
<path d="M170.578 70.3464L171.114 101.036" stroke="white" stroke-width="4"/>
<path d="M180.571 70.172L181.107 100.861" stroke="white" stroke-width="4"/>
<path d="M181.107 100.861C181.13 102.186 180.626 103.467 179.705 104.42C178.785 105.373 177.523 105.922 176.198 105.945" stroke="white" stroke-width="4" stroke-linecap="round" stroke-linejoin="round"/>
<path d="M171.114 101.036C171.137 102.361 171.686 103.623 172.639 104.543C173.593 105.464 174.873 105.968 176.198 105.945" stroke="white" stroke-width="4" stroke-linecap="round" stroke-linejoin="round"/>
<path d="M190.647 22.6403C192.772 24.6917 194.471 27.1414 195.649 29.8496C196.826 32.5578 197.459 35.4715 197.51 38.4241C197.562 41.3768 197.031 44.3108 195.949 47.0584C194.867 49.8061 193.254 52.3136 191.202 54.4379C189.151 56.5622 186.701 58.2617 183.993 59.4393C181.285 60.6168 178.371 61.2494 175.419 61.301C172.466 61.3525 169.532 60.822 166.784 59.7396C164.037 58.6573 161.529 57.0444 159.405 54.993C155.115 50.8499 152.646 45.1723 152.542 39.2091C152.438 33.2459 154.707 27.4855 158.85 23.1953C160.901 21.071 163.351 19.3715 166.059 18.194C168.767 17.0164 171.681 16.3838 174.634 16.3323C177.586 16.2807 180.52 16.8113 183.268 17.8936C186.016 18.9759 188.523 20.5888 190.647 22.6403Z" stroke="white" stroke-width="4" stroke-linecap="round" stroke-linejoin="round"/>
<path d="M170.578 70.3464L180.571 70.172" stroke="white" stroke-width="4" stroke-linecap="round" stroke-linejoin="round"/>
<path d="M175.575 70.2592L175.419 61.301" stroke="white" stroke-width="4" stroke-linecap="round" stroke-linejoin="round"/>
<path d="M170.727 78.876L180.72 78.7016" stroke="white" stroke-width="4" stroke-linecap="round" stroke-linejoin="round"/>
<path d="M183.705 29.8298C186.088 32.1314 187.46 35.2857 187.517 38.5986C187.575 41.9115 186.315 45.1117 184.013 47.4951" stroke="white" stroke-width="4" stroke-linecap="round" stroke-linejoin="round"/>
</g>
<defs>
<clipPath id="clip0_5_16">
<rect width="81.5011" height="81.5011" fill="white" transform="translate(117.62 58.6269) rotate(-46)"/>
</clipPath>
</defs>
</svg>
